<svg width="24" height="24" viewBox="0 0 24 24" fill="none" xmlns="http://www.w3.org/2000/svg">
<path d="M12 6.75C12.8284 6.75 13.5 6.07843 13.5 5.25C13.5 4.42157 12.8284 3.75 12 3.75C11.1716 3.75 10.5 4.42157 10.5 5.25C10.5 6.07843 11.1716 6.75 12 6.75Z" stroke="black" stroke-width="1.5" stroke-miterlimit="10" stroke-linecap="round" stroke-linejoin="round"/>
<path d="M12 13.5C12.8284 13.5 13.5 12.8284 13.5 12C13.5 11.1716 12.8284 10.5 12 10.5C11.1716 10.5 10.5 11.1716 10.5 12C10.5 12.8284 11.1716 13.5 12 13.5Z" stroke="black" stroke-width="1.5" stroke-miterlimit="10" stroke-linecap="round" stroke-linejoin="round"/>
<path d="M12 20.25C12.8284 20.25 13.5 19.5784 13.5 18.75C13.5 17.9216 12.8284 17.25 12 17.25C11.1716 17.25 10.5 17.9216 10.5 18.75C10.5 19.5784 11.1716 20.25 12 20.25Z" stroke="black" stroke-width="1.5" stroke-miterlimit="10" stroke-linecap="round" stroke-linejoin="round"/>
</svg>
