<svg width="15" height="15" viewBox="0 0 15 15" fill="none" xmlns="http://www.w3.org/2000/svg">
<g clip-path="url(#clip0_1758_972)">
<path d="M6.25 8.75H7.5M7.5 8.75H8.75M7.5 8.75V10M7.5 8.75V7.5" stroke="#4A90E2" stroke-width="2" stroke-linecap="round"/>
<path d="M13.75 7.37369C13.75 5.72846 13.75 4.90584 13.2691 4.37114C13.2249 4.32196 13.1781 4.27515 13.1289 4.23091C12.5941 3.75 11.7716 3.75 10.1263 3.75H9.89275C9.17169 3.75 8.81119 3.75 8.47525 3.65424C8.29069 3.60162 8.11275 3.52794 7.94506 3.43464C7.63981 3.26479 7.38488 3.00986 6.875 2.5L6.53106 2.15609C6.36019 1.98521 6.27475 1.89976 6.18496 1.82532C5.79782 1.5044 5.32291 1.30768 4.82223 1.26086C4.7061 1.25 4.58526 1.25 4.34359 1.25C3.79201 1.25 3.51622 1.25 3.28649 1.29334C2.27519 1.48415 1.48415 2.27519 1.29334 3.28649C1.25 3.51622 1.25 3.79201 1.25 4.34359M13.7446 10C13.7221 11.5497 13.6072 12.4283 13.0177 13.0177C12.2856 13.75 11.107 13.75 8.75 13.75H6.25C3.89298 13.75 2.71447 13.75 1.98223 13.0177C1.25 12.2856 1.25 11.107 1.25 8.75V6.875" stroke="#4A90E2" stroke-width="2" stroke-linecap="round"/>
</g>
<defs>
<clipPath id="clip0_1758_972">
<rect width="15" height="15" fill="white"/>
</clipPath>
</defs>
</svg>
