<svg width="15" height="15" viewBox="0 0 15 15" fill="none" xmlns="http://www.w3.org/2000/svg">
<mask id="path-1-inside-1_1758_985" fill="white">
<path d="M12.082 14.6953H2.97656C2.78906 14.6953 2.60156 14.6602 2.42578 14.5898C2.26172 14.5195 2.10938 14.4141 1.98047 14.2852C1.85156 14.1563 1.74609 14.0039 1.67578 13.8398C1.60547 13.6641 1.57031 13.4883 1.57031 13.2891V3.80859C1.57031 3.62109 1.60547 3.43359 1.67578 3.25781C1.74609 3.09375 1.85156 2.94141 1.98047 2.8125C2.10938 2.68359 2.26172 2.57812 2.42578 2.50781C2.60156 2.4375 2.77734 2.40234 2.97656 2.40234H4.35938V3.10547H2.97656C2.58984 3.10547 2.27344 3.42188 2.27344 3.80859V13.2891C2.27344 13.6758 2.58984 13.9922 2.97656 13.9922H12.082C12.4687 13.9922 12.7852 13.6758 12.7852 13.2891V3.80859C12.7852 3.42188 12.4687 3.10547 12.082 3.10547H10.6992V2.40234H12.0703C12.2578 2.40234 12.4453 2.4375 12.6211 2.50781C12.7852 2.57812 12.9375 2.68359 13.0664 2.8125C13.1953 2.94141 13.3008 3.09375 13.3711 3.25781C13.4414 3.43359 13.4766 3.60937 13.4766 3.80859V13.2891C13.4766 13.4766 13.4414 13.6641 13.3711 13.8398C13.3008 14.0039 13.1953 14.1563 13.0664 14.2852C12.9375 14.4141 12.7852 14.5195 12.6211 14.5898C12.457 14.6602 12.2695 14.6953 12.082 14.6953Z"/>
</mask>
<path d="M2.42578 14.5898L0.0622655 20.1047L0.12951 20.1335L0.197437 20.1607L2.42578 14.5898ZM1.67578 13.8398L-3.89508 16.0682L-3.86791 16.1361L-3.83909 16.2034L1.67578 13.8398ZM1.67578 3.25781L-3.83909 0.894297L-3.86791 0.961541L-3.89508 1.02947L1.67578 3.25781ZM2.42578 2.50781L0.197437 -3.06305L0.12951 -3.03588L0.0622655 -3.00706L2.42578 2.50781ZM4.35938 2.40234H10.3594V-3.59766H4.35938V2.40234ZM4.35938 3.10547V9.10547H10.3594V3.10547H4.35938ZM10.6992 3.10547H4.69922V9.10547H10.6992V3.10547ZM10.6992 2.40234V-3.59766H4.69922V2.40234H10.6992ZM12.6211 2.50781L14.9846 -3.00706L14.9174 -3.03588L14.8494 -3.06305L12.6211 2.50781ZM13.3711 3.25781L18.942 1.02947L18.9148 0.961541L18.886 0.894297L13.3711 3.25781ZM13.3711 13.8398L18.886 16.2034L18.9148 16.1361L18.942 16.0682L13.3711 13.8398ZM12.082 8.69531H2.97656V20.6953H12.082V8.69531ZM2.97656 8.69531C3.53574 8.69531 4.1059 8.79969 4.65413 9.01898L0.197437 20.1607C1.09722 20.5206 2.04238 20.6953 2.97656 20.6953V8.69531ZM4.7893 9.07497C5.3733 9.32526 5.84921 9.66862 6.22311 10.0425L-2.26217 18.5278C-1.63046 19.1595 -0.849866 19.7138 0.0622655 20.1047L4.7893 9.07497ZM6.22311 10.0425C6.59701 10.4164 6.94036 10.8923 7.19065 11.4763L-3.83909 16.2034C-3.44818 17.1155 -2.89388 17.8961 -2.26217 18.5278L6.22311 10.0425ZM7.24664 11.6115C7.34209 11.8501 7.42793 12.1261 7.48736 12.4331C7.54676 12.74 7.57031 13.0291 7.57031 13.2891H-4.42969C-4.42969 14.2592 -4.24605 15.1907 -3.89508 16.0682L7.24664 11.6115ZM7.57031 13.2891V3.80859H-4.42969V13.2891H7.57031ZM7.57031 3.80859C7.57031 4.36777 7.46593 4.93793 7.24664 5.48616L-3.89508 1.02947C-4.25499 1.92926 -4.42969 2.87442 -4.42969 3.80859H7.57031ZM7.19065 5.62133C6.94036 6.20534 6.59701 6.68124 6.22311 7.05514L-2.26217 -1.43014C-2.89388 -0.798432 -3.44817 -0.017839 -3.83909 0.894297L7.19065 5.62133ZM6.22311 7.05514C5.84921 7.42904 5.37331 7.77239 4.7893 8.02268L0.0622655 -3.00706C-0.849869 -2.61614 -1.63046 -2.06185 -2.26217 -1.43014L6.22311 7.05514ZM4.65413 8.07867C4.41551 8.17412 4.13957 8.25996 3.83251 8.31939C3.5256 8.37879 3.23648 8.40234 2.97656 8.40234V-3.59766C2.00646 -3.59766 1.07488 -3.41402 0.197437 -3.06305L4.65413 8.07867ZM2.97656 8.40234H4.35938V-3.59766H2.97656V8.40234ZM-1.64062 2.40234V3.10547H10.3594V2.40234H-1.64062ZM4.35938 -2.89453H2.97656V9.10547H4.35938V-2.89453ZM2.97656 -2.89453C-0.723865 -2.89453 -3.72656 0.108167 -3.72656 3.80859H8.27344C8.27344 6.73558 5.90355 9.10547 2.97656 9.10547V-2.89453ZM-3.72656 3.80859V13.2891H8.27344V3.80859H-3.72656ZM-3.72656 13.2891C-3.72656 16.9895 -0.723865 19.9922 2.97656 19.9922V7.99219C5.90355 7.99219 8.27344 10.3621 8.27344 13.2891H-3.72656ZM2.97656 19.9922H12.082V7.99219H2.97656V19.9922ZM12.082 19.9922C15.7825 19.9922 18.7852 16.9895 18.7852 13.2891H6.78516C6.78516 10.3621 9.15504 7.99219 12.082 7.99219V19.9922ZM18.7852 13.2891V3.80859H6.78516V13.2891H18.7852ZM18.7852 3.80859C18.7852 0.108167 15.7825 -2.89453 12.082 -2.89453V9.10547C9.15504 9.10547 6.78516 6.73558 6.78516 3.80859H18.7852ZM12.082 -2.89453H10.6992V9.10547H12.082V-2.89453ZM16.6992 3.10547V2.40234H4.69922V3.10547H16.6992ZM10.6992 8.40234H12.0703V-3.59766H10.6992V8.40234ZM12.0703 8.40234C11.5111 8.40234 10.941 8.29796 10.3927 8.07867L14.8494 -3.06305C13.9496 -3.42296 13.0045 -3.59766 12.0703 -3.59766V8.40234ZM10.2576 8.02268C9.67357 7.77239 9.19766 7.42904 8.82377 7.05514L17.309 -1.43014C16.6773 -2.06185 15.8967 -2.61614 14.9846 -3.00706L10.2576 8.02268ZM8.82377 7.05514C8.44987 6.68124 8.10651 6.20534 7.85622 5.62133L18.886 0.894297C18.495 -0.0178372 17.9408 -0.798431 17.309 -1.43014L8.82377 7.05514ZM7.80023 5.48616C7.70479 5.24755 7.61895 4.9716 7.55952 4.66455C7.50011 4.35764 7.47656 4.06852 7.47656 3.80859H19.4766C19.4766 2.83849 19.2929 1.90691 18.942 1.02947L7.80023 5.48616ZM7.47656 3.80859V13.2891H19.4766V3.80859H7.47656ZM7.47656 13.2891C7.47656 12.7299 7.58094 12.1597 7.80023 11.6115L18.942 16.0682C19.3019 15.1684 19.4766 14.2232 19.4766 13.2891H7.47656ZM7.85622 11.4763C8.10651 10.8923 8.44986 10.4164 8.82377 10.0425L17.309 18.5278C17.9408 17.8961 18.4951 17.1155 18.886 16.2034L7.85622 11.4763ZM8.82377 10.0425C9.19767 9.66861 9.67357 9.32526 10.2576 9.07497L14.9846 20.1047C15.8967 19.7138 16.6773 19.1595 17.309 18.5278L8.82377 10.0425ZM10.2576 9.07497C10.9226 8.78997 11.5515 8.69531 12.082 8.69531V20.6953C12.9876 20.6953 13.9915 20.5303 14.9846 20.1047L10.2576 9.07497Z" fill="#008000" mask="url(#path-1-inside-1_1758_985)"/>
<mask id="path-3-inside-2_1758_985" fill="white">
<path d="M11.0273 4.51172H4.01953V2.23828C4.01953 1.75781 4.40625 1.35938 4.89844 1.35938H5.80078C6.12891 0.714844 6.78516 0.292969 7.52344 0.292969C8.26172 0.292969 8.91797 0.714844 9.24609 1.35938H10.1484C10.6289 1.35938 11.0273 1.74609 11.0273 2.23828V4.51172ZM4.72266 3.80859H10.3242V2.23828C10.3242 2.14453 10.2422 2.0625 10.1484 2.0625H8.76563L8.68359 1.82813C8.50781 1.33594 8.05078 1.00781 7.52344 1.00781C6.99609 1.00781 6.53906 1.33594 6.36328 1.82813L6.28125 2.0625H4.89844C4.80469 2.0625 4.72266 2.14453 4.72266 2.23828V3.80859ZM6.33984 11.6016C6.24609 11.6016 6.16406 11.5664 6.09375 11.4961L3.70312 9.10547C3.63281 9.03516 3.59766 8.95312 3.59766 8.85937C3.59766 8.76562 3.63281 8.68359 3.70312 8.61328C3.77344 8.54297 3.85547 8.50781 3.94922 8.50781C4.04297 8.50781 4.125 8.54297 4.19531 8.61328L6.12891 10.5469C6.1875 10.6055 6.25781 10.6289 6.32812 10.6289C6.39844 10.6289 6.48047 10.6055 6.52734 10.5469L10.8516 6.22266C10.9219 6.15234 11.0039 6.11719 11.0977 6.11719C11.1914 6.11719 11.2734 6.15234 11.3438 6.22266C11.4844 6.36328 11.4844 6.57422 11.3438 6.71484L6.58594 11.4961C6.51562 11.5547 6.42187 11.6016 6.33984 11.6016Z"/>
</mask>
<path d="M11.0273 4.51172V10.5117H17.0273V4.51172H11.0273ZM4.01953 4.51172H-1.98047V10.5117H4.01953V4.51172ZM5.80078 1.35938V7.35938H9.47901L11.1478 4.08147L5.80078 1.35938ZM9.24609 1.35938L3.89912 4.08147L5.56787 7.35938H9.24609V1.35938ZM4.72266 3.80859H-1.27734V9.80859H4.72266V3.80859ZM10.3242 3.80859V9.80859H16.3242V3.80859H10.3242ZM8.76563 2.0625L3.10248 4.04461L4.50875 8.0625H8.76563V2.0625ZM8.68359 1.82813L14.3467 -0.153989L14.3404 -0.171961L14.334 -0.189893L8.68359 1.82813ZM6.36328 1.82813L0.71283 -0.189893L0.706424 -0.171957L0.700132 -0.153979L6.36328 1.82813ZM6.28125 2.0625V8.0625H10.5381L11.9444 4.0446L6.28125 2.0625ZM6.09375 11.4961L1.85111 15.7387L1.85111 15.7387L6.09375 11.4961ZM3.70312 9.10547L7.94577 4.86283L7.94577 4.86283L3.70312 9.10547ZM6.52734 10.5469L2.2847 6.30423L2.04972 6.53921L1.84213 6.7987L6.52734 10.5469ZM10.8516 6.22266L6.60892 1.98002L6.60892 1.98002L10.8516 6.22266ZM11.3438 6.71484L7.10111 2.4722L7.0959 2.47741L7.0907 2.48264L11.3438 6.71484ZM6.58594 11.4961L10.427 16.1054L10.6418 15.9265L10.839 15.7283L6.58594 11.4961ZM11.0273 -1.48828H4.01953V10.5117H11.0273V-1.48828ZM10.0195 4.51172V2.23828H-1.98047V4.51172H10.0195ZM10.0195 2.23828C10.0195 5.01926 7.77197 7.35938 4.89844 7.35938V-4.64062C1.04053 -4.64062 -1.98047 -1.50364 -1.98047 2.23828H10.0195ZM4.89844 7.35938H5.80078V-4.64062H4.89844V7.35938ZM11.1478 4.08147C10.4909 5.37169 9.12681 6.29297 7.52344 6.29297V-5.70703C4.44351 -5.70703 1.76689 -3.94201 0.453802 -1.36272L11.1478 4.08147ZM7.52344 6.29297C5.92007 6.29297 4.55596 5.3717 3.89912 4.08147L14.5931 -1.36272C13.28 -3.94201 10.6034 -5.70703 7.52344 -5.70703V6.29297ZM9.24609 7.35938H10.1484V-4.64062H9.24609V7.35938ZM10.1484 7.35938C7.36745 7.35938 5.02734 5.11182 5.02734 2.23828H17.0273C17.0273 -1.61963 13.8904 -4.64062 10.1484 -4.64062V7.35938ZM5.02734 2.23828V4.51172H17.0273V2.23828H5.02734ZM4.72266 9.80859H10.3242V-2.19141H4.72266V9.80859ZM16.3242 3.80859V2.23828H4.32422V3.80859H16.3242ZM16.3242 2.23828C16.3242 -1.16918 13.5559 -3.9375 10.1484 -3.9375V8.0625C6.92848 8.0625 4.32422 5.45824 4.32422 2.23828H16.3242ZM10.1484 -3.9375H8.76563V8.0625H10.1484V-3.9375ZM14.4288 0.0803859L14.3467 -0.153989L3.02045 3.81024L3.10248 4.04461L14.4288 0.0803859ZM14.334 -0.189893C13.3174 -3.03663 10.6218 -4.99219 7.52344 -4.99219V7.00781C5.4798 7.00781 3.69827 5.7085 3.03314 3.84614L14.334 -0.189893ZM7.52344 -4.99219C4.42511 -4.99219 1.72952 -3.03662 0.71283 -0.189893L12.0137 3.84614C11.3486 5.7085 9.56708 7.00781 7.52344 7.00781V-4.99219ZM0.700132 -0.153979L0.6181 0.0803956L11.9444 4.0446L12.0264 3.81023L0.700132 -0.153979ZM6.28125 -3.9375H4.89844V8.0625H6.28125V-3.9375ZM4.89844 -3.9375C1.49098 -3.9375 -1.27734 -1.16918 -1.27734 2.23828H10.7227C10.7227 5.45824 8.1184 8.0625 4.89844 8.0625V-3.9375ZM-1.27734 2.23828V3.80859H10.7227V2.23828H-1.27734ZM6.33984 5.60156C7.06378 5.60156 7.82824 5.74177 8.57153 6.06033C9.30789 6.37591 9.89333 6.81039 10.3364 7.25345L1.85111 15.7387C2.97088 16.8585 4.55076 17.6016 6.33984 17.6016V5.60156ZM10.3364 7.25345L7.94577 4.86283L-0.539516 13.3481L1.85111 15.7387L10.3364 7.25345ZM7.94577 4.86283C8.38883 5.30589 8.82331 5.89134 9.13889 6.62769C9.45745 7.37098 9.59766 8.13544 9.59766 8.85937H-2.40234C-2.40234 10.6484 -1.65929 12.2283 -0.539516 13.3481L7.94577 4.86283ZM9.59766 8.85937C9.59766 9.58331 9.45745 10.3478 9.13889 11.0911C8.82331 11.8274 8.38883 12.4129 7.94577 12.8559L-0.539516 4.37064C-1.65929 5.49042 -2.40234 7.0703 -2.40234 8.85937H9.59766ZM7.94577 12.8559C7.5027 13.299 6.91726 13.7335 6.1809 14.049C5.43761 14.3676 4.67316 14.5078 3.94922 14.5078V2.50781C2.16014 2.50781 0.580258 3.25087 -0.539516 4.37064L7.94577 12.8559ZM3.94922 14.5078C3.22528 14.5078 2.46082 14.3676 1.71753 14.049C0.981177 13.7335 0.395731 13.299 -0.0473284 12.8559L8.43795 4.37064C7.31818 3.25087 5.7383 2.50781 3.94922 2.50781V14.5078ZM-0.0473284 12.8559L1.88627 14.7895L10.3715 6.30423L8.43795 4.37064L-0.0473284 12.8559ZM1.88627 14.7895C3.1879 16.0912 4.84127 16.6289 6.32812 16.6289V4.62891C7.67436 4.62891 9.1871 5.11978 10.3715 6.30423L1.88627 14.7895ZM6.32812 16.6289C7.3564 16.6289 9.57871 16.3374 11.2126 14.295L1.84213 6.7987C2.64664 5.79307 3.60892 5.26221 4.3298 4.99188C5.04947 4.72201 5.73592 4.62891 6.32812 4.62891V16.6289ZM10.77 14.7895L15.0942 10.4653L6.60892 1.98002L2.2847 6.30423L10.77 14.7895ZM15.0942 10.4653C14.6511 10.9084 14.0657 11.3428 13.3293 11.6584C12.586 11.977 11.8216 12.1172 11.0977 12.1172V0.117188C9.30859 0.117188 7.72871 0.86023 6.60892 1.98002L15.0942 10.4653ZM11.0977 12.1172C10.3737 12.1172 9.60928 11.977 8.866 11.6584C8.12965 11.3429 7.54419 10.9084 7.10111 10.4653L15.5864 1.98002C14.4666 0.860212 12.8867 0.117188 11.0977 0.117188V12.1172ZM7.10111 10.4653C4.89859 8.26278 4.89859 4.67472 7.10111 2.4722L15.5864 10.9575C18.0702 8.47371 18.0702 4.46379 15.5864 1.98002L7.10111 10.4653ZM7.0907 2.48264L2.33289 7.26389L10.839 15.7283L15.5968 10.947L7.0907 2.48264ZM2.74483 6.88677C3.09047 6.59873 3.51067 6.3209 4.01295 6.09575C4.4835 5.88481 5.29094 5.60156 6.33984 5.60156V17.6016C8.39055 17.6016 9.81148 16.6184 10.427 16.1054L2.74483 6.88677Z" fill="#008000" mask="url(#path-3-inside-2_1758_985)"/>
</svg>
