<svg width="132" height="18" viewBox="0 0 132 18" fill="none" xmlns="http://www.w3.org/2000/svg">
<path d="M3.66 2.96V17H0.24V2.96H3.66ZM12.9384 5.72C14.2451 5.72 15.2851 6.14667 16.0584 7C16.8451 7.84 17.2384 9 17.2384 10.48V17H13.8384V10.94C13.8384 10.1933 13.6451 9.61333 13.2584 9.2C12.8718 8.78667 12.3518 8.58 11.6984 8.58C11.0451 8.58 10.5251 8.78667 10.1384 9.2C9.75177 9.61333 9.55844 10.1933 9.55844 10.94V17H6.13844V5.84H9.55844V7.32C9.9051 6.82667 10.3718 6.44 10.9584 6.16C11.5451 5.86667 12.2051 5.72 12.9384 5.72ZM33.9533 2.96V5.7H30.2333V17H26.8133V5.7H23.0933V2.96H33.9533ZM40.7497 17.16C39.6564 17.16 38.6697 16.9267 37.7897 16.46C36.923 15.9933 36.2364 15.3267 35.7297 14.46C35.2364 13.5933 34.9897 12.58 34.9897 11.42C34.9897 10.2733 35.243 9.26667 35.7497 8.4C36.2564 7.52 36.9497 6.84667 37.8297 6.38C38.7097 5.91333 39.6964 5.68 40.7897 5.68C41.883 5.68 42.8697 5.91333 43.7497 6.38C44.6297 6.84667 45.323 7.52 45.8297 8.4C46.3364 9.26667 46.5897 10.2733 46.5897 11.42C46.5897 12.5667 46.3297 13.58 45.8097 14.46C45.303 15.3267 44.603 15.9933 43.7097 16.46C42.8297 16.9267 41.843 17.16 40.7497 17.16ZM40.7497 14.2C41.403 14.2 41.9564 13.96 42.4097 13.48C42.8764 13 43.1097 12.3133 43.1097 11.42C43.1097 10.5267 42.883 9.84 42.4297 9.36C41.9897 8.88 41.443 8.64 40.7897 8.64C40.123 8.64 39.5697 8.88 39.1297 9.36C38.6897 9.82667 38.4697 10.5133 38.4697 11.42C38.4697 12.3133 38.683 13 39.1097 13.48C39.5497 13.96 40.0964 14.2 40.7497 14.2ZM57.0041 8.56V11.4H48.2041V8.56H57.0041ZM65.2656 2.96C66.7456 2.96 68.039 3.25333 69.1456 3.84C70.2523 4.42667 71.1056 5.25333 71.7056 6.32C72.319 7.37333 72.6256 8.59333 72.6256 9.98C72.6256 11.3533 72.319 12.5733 71.7056 13.64C71.1056 14.7067 70.2456 15.5333 69.1256 16.12C68.019 16.7067 66.7323 17 65.2656 17H60.0056V2.96H65.2656ZM65.0456 14.04C66.339 14.04 67.3456 13.6867 68.0656 12.98C68.7856 12.2733 69.1456 11.2733 69.1456 9.98C69.1456 8.68667 68.7856 7.68 68.0656 6.96C67.3456 6.24 66.339 5.88 65.0456 5.88H63.4256V14.04H65.0456ZM79.6169 17.16C78.5235 17.16 77.5369 16.9267 76.6569 16.46C75.7902 15.9933 75.1035 15.3267 74.5969 14.46C74.1035 13.5933 73.8569 12.58 73.8569 11.42C73.8569 10.2733 74.1102 9.26667 74.6169 8.4C75.1235 7.52 75.8169 6.84667 76.6969 6.38C77.5769 5.91333 78.5635 5.68 79.6569 5.68C80.7502 5.68 81.7369 5.91333 82.6169 6.38C83.4969 6.84667 84.1902 7.52 84.6969 8.4C85.2035 9.26667 85.4569 10.2733 85.4569 11.42C85.4569 12.5667 85.1969 13.58 84.6769 14.46C84.1702 15.3267 83.4702 15.9933 82.5769 16.46C81.6969 16.9267 80.7102 17.16 79.6169 17.16ZM79.6169 14.2C80.2702 14.2 80.8235 13.96 81.2769 13.48C81.7435 13 81.9769 12.3133 81.9769 11.42C81.9769 10.5267 81.7502 9.84 81.2969 9.36C80.8569 8.88 80.3102 8.64 79.6569 8.64C78.9902 8.64 78.4369 8.88 77.9969 9.36C77.5569 9.82667 77.3369 10.5133 77.3369 11.42C77.3369 12.3133 77.5502 13 77.9769 13.48C78.4169 13.96 78.9635 14.2 79.6169 14.2ZM95.8713 8.56V11.4H87.0713V8.56H95.8713ZM102.293 14.36H106.773V17H98.8728V2.96H102.293V14.36ZM110.124 4.68C109.524 4.68 109.031 4.50667 108.644 4.16C108.271 3.8 108.084 3.36 108.084 2.84C108.084 2.30667 108.271 1.86667 108.644 1.52C109.031 1.16 109.524 0.979999 110.124 0.979999C110.711 0.979999 111.191 1.16 111.564 1.52C111.951 1.86667 112.144 2.30667 112.144 2.84C112.144 3.36 111.951 3.8 111.564 4.16C111.191 4.50667 110.711 4.68 110.124 4.68ZM111.824 5.84V17H108.404V5.84H111.824ZM118.843 17.16C117.869 17.16 117.003 16.9933 116.243 16.66C115.483 16.3267 114.883 15.8733 114.443 15.3C114.003 14.7133 113.756 14.06 113.703 13.34H117.083C117.123 13.7267 117.303 14.04 117.623 14.28C117.943 14.52 118.336 14.64 118.803 14.64C119.229 14.64 119.556 14.56 119.783 14.4C120.023 14.2267 120.143 14.0067 120.143 13.74C120.143 13.42 119.976 13.1867 119.643 13.04C119.309 12.88 118.769 12.7067 118.023 12.52C117.223 12.3333 116.556 12.14 116.023 11.94C115.489 11.7267 115.029 11.4 114.643 10.96C114.256 10.5067 114.063 9.9 114.063 9.14C114.063 8.5 114.236 7.92 114.583 7.4C114.943 6.86667 115.463 6.44667 116.143 6.14C116.836 5.83333 117.656 5.68 118.603 5.68C120.003 5.68 121.103 6.02667 121.903 6.72C122.716 7.41333 123.183 8.33333 123.303 9.48H120.143C120.089 9.09333 119.916 8.78667 119.623 8.56C119.343 8.33333 118.969 8.22 118.503 8.22C118.103 8.22 117.796 8.3 117.583 8.46C117.369 8.60667 117.263 8.81333 117.263 9.08C117.263 9.4 117.429 9.64 117.763 9.8C118.109 9.96 118.643 10.12 119.363 10.28C120.189 10.4933 120.863 10.7067 121.383 10.92C121.903 11.12 122.356 11.4533 122.743 11.92C123.143 12.3733 123.349 12.9867 123.363 13.76C123.363 14.4133 123.176 15 122.803 15.52C122.443 16.0267 121.916 16.4267 121.223 16.72C120.543 17.0133 119.749 17.16 118.843 17.16ZM131.675 14.1V17H129.935C128.695 17 127.728 16.7 127.035 16.1C126.342 15.4867 125.995 14.4933 125.995 13.12V8.68H124.635V5.84H125.995V3.12H129.415V5.84H131.655V8.68H129.415V13.16C129.415 13.4933 129.495 13.7333 129.655 13.88C129.815 14.0267 130.082 14.1 130.455 14.1H131.675Z" fill="black"/>
</svg>
